<?xml version="1.0" encoding="UTF-8" standalone="no"?><!DOCTYPE svg PUBLIC "-//W3C//DTD SVG 1.1//EN" "http://www.w3.org/Graphics/SVG/1.1/DTD/svg11.dtd"><svg width="100%" height="100%" viewBox="0 0 1524 295" version="1.1" xmlns="http://www.w3.org/2000/svg" xmlns:xlink="http://www.w3.org/1999/xlink" xml:space="preserve" xmlns:serif="http://www.serif.com/" style="fill-rule:evenodd;clip-rule:evenodd;stroke-linejoin:round;stroke-miterlimit:2;"><g><path d="M155.129,294.473c-30.844,0 -57.969,-6.35 -81.375,-19.051c-23.405,-12.7 -41.549,-30.118 -54.431,-52.254c-12.882,-22.135 -19.323,-47.536 -19.323,-76.203c0,-28.668 6.26,-54.069 18.779,-76.204c12.519,-22.136 29.756,-39.463 51.71,-51.982c21.954,-12.519 46.72,-18.779 74.298,-18.779c27.942,0 52.617,6.169 74.027,18.507c21.41,12.337 38.193,29.665 50.349,51.982c12.156,22.316 18.234,48.353 18.234,78.109c0,2.177 -0.09,4.717 -0.272,7.62c-0.181,2.903 -0.453,5.624 -0.816,8.165l-245.486,-0l0,-37.558l218.27,-0l-21.228,13.063c0.363,-18.506 -3.447,-35.017 -11.431,-49.532c-7.983,-14.515 -18.96,-25.855 -32.931,-34.02c-13.97,-8.164 -30.209,-12.247 -48.716,-12.247c-18.143,0 -34.291,4.083 -48.444,12.247c-14.152,8.165 -25.219,19.596 -33.203,34.292c-7.983,14.697 -11.975,31.48 -11.975,50.349l0,8.709c0,19.233 4.446,36.378 13.336,51.438c8.891,15.059 21.319,26.762 37.286,35.108c15.966,8.346 34.291,12.519 54.975,12.519c17.055,0 32.568,-2.903 46.539,-8.709c13.971,-5.806 26.218,-14.515 36.741,-26.127l28.849,33.748c-13.064,15.24 -29.302,26.852 -48.716,34.836c-19.414,7.983 -41.096,11.974 -65.046,11.974Z" style="fill:#1a1a1a;fill-rule:nonzero;"/><path d="M318.212,292.841l-0,-288.486l50.076,-0l0,78.381l-4.898,-19.596c7.983,-19.958 21.409,-35.199 40.279,-45.722c18.869,-10.523 42.093,-15.785 69.672,-15.785l-0,50.621c-2.177,-0.363 -4.264,-0.544 -6.26,-0.544l-5.715,-0c-27.941,-0 -50.077,8.346 -66.406,25.038c-16.33,16.692 -24.494,40.824 -24.494,72.394l-0,143.699l-52.254,-0Z" style="fill:#1a1a1a;fill-rule:nonzero;"/><path d="M606.304,291.48l-126.28,-288.486l54.431,-0l112.129,261.27l-26.127,0l114.305,-261.27l51.166,-0l-126.281,288.486l-53.343,-0Z" style="fill:#1a1a1a;fill-rule:nonzero;"/><path d="M917.41,294.473c-30.845,0 -57.97,-6.35 -81.375,-19.051c-23.406,-12.7 -41.549,-30.118 -54.431,-52.254c-12.883,-22.135 -19.324,-47.536 -19.324,-76.203c0,-28.668 6.26,-54.069 18.779,-76.204c12.519,-22.136 29.756,-39.463 51.71,-51.982c21.954,-12.519 46.72,-18.779 74.299,-18.779c27.941,0 52.617,6.169 74.026,18.507c21.41,12.337 38.193,29.665 50.349,51.982c12.157,22.316 18.235,48.353 18.235,78.109c-0,2.177 -0.091,4.717 -0.272,7.62c-0.182,2.903 -0.454,5.624 -0.817,8.165l-245.485,-0l-0,-37.558l218.269,-0l-21.228,13.063c0.363,-18.506 -3.447,-35.017 -11.43,-49.532c-7.984,-14.515 -18.961,-25.855 -32.931,-34.02c-13.971,-8.164 -30.21,-12.247 -48.716,-12.247c-18.144,0 -34.292,4.083 -48.444,12.247c-14.152,8.165 -25.22,19.596 -33.203,34.292c-7.984,14.697 -11.975,31.48 -11.975,50.349l-0,8.709c-0,19.233 4.445,36.378 13.336,51.438c8.89,15.059 21.318,26.762 37.285,35.108c15.966,8.346 34.292,12.519 54.976,12.519c17.055,0 32.568,-2.903 46.538,-8.709c13.971,-5.806 26.218,-14.515 36.742,-26.127l28.848,33.748c-13.063,15.24 -29.302,26.852 -48.716,34.836c-19.414,7.983 -41.096,11.974 -65.045,11.974Z" style="fill:#1a1a1a;fill-rule:nonzero;"/><path d="M1368.75,0c30.845,0 57.97,6.35 81.375,19.051c23.406,12.701 41.549,30.119 54.431,52.254c12.883,22.135 19.324,47.537 19.324,76.204c-0,28.667 -6.26,54.068 -18.779,76.204c-12.519,22.135 -29.756,39.462 -51.71,51.982c-21.954,12.519 -46.72,18.778 -74.299,18.778c-27.941,0 -52.617,-6.168 -74.026,-18.506c-21.41,-12.338 -38.193,-29.665 -50.349,-51.982c-12.157,-22.317 -18.235,-48.353 -18.235,-78.109c0,-2.177 0.091,-4.717 0.272,-7.62c0.182,-2.903 0.454,-5.625 0.817,-8.165l245.485,-0l0,37.557l-218.269,0l21.228,-13.063c-0.363,18.507 3.447,35.017 11.43,49.532c7.984,14.515 18.961,25.855 32.931,34.02c13.971,8.165 30.21,12.247 48.716,12.247c18.144,0 34.292,-4.082 48.444,-12.247c14.152,-8.165 25.22,-19.595 33.203,-34.292c7.984,-14.696 11.975,-31.479 11.975,-50.349l0,-8.709c0,-19.232 -4.445,-36.378 -13.336,-51.437c-8.89,-15.06 -21.318,-26.762 -37.285,-35.108c-15.967,-8.347 -34.292,-12.52 -54.976,-12.52c-17.055,0 -32.568,2.903 -46.538,8.709c-13.971,5.806 -26.218,14.515 -36.742,26.127l-28.848,-33.747c13.063,-15.241 29.302,-26.853 48.716,-34.836c19.414,-7.983 41.096,-11.975 65.045,-11.975Z" style="fill:#1a1a1a;fill-rule:nonzero;"/><path d="M1003.96,291.48l124.104,-161.117l-0.544,26.671l-118.116,-154.04l58.241,-0l90.356,118.66l-22.317,0l90.356,-118.66l57.153,-0l-119.749,155.129l0.545,-27.76l125.192,161.117l-59.331,-0l-95.254,-126.281l21.228,3.266l-93.622,123.015l-58.242,-0Z" style="fill:#1a1a1a;fill-rule:nonzero;"/></g></svg>