<?xml version="1.0" encoding="UTF-8" standalone="no"?><!DOCTYPE svg PUBLIC "-//W3C//DTD SVG 1.1//EN" "http://www.w3.org/Graphics/SVG/1.1/DTD/svg11.dtd"><svg width="100%" height="100%" viewBox="0 0 595 575" version="1.1" xmlns="http://www.w3.org/2000/svg" xmlns:xlink="http://www.w3.org/1999/xlink" xml:space="preserve" xmlns:serif="http://www.serif.com/" style="fill-rule:evenodd;clip-rule:evenodd;stroke-linejoin:round;stroke-miterlimit:2;"><g><path d="M369.685,82.791c7.253,-13.012 16.806,-29.03 30.179,-40.896c39.195,-34.76 73.166,6.824 89.106,37.382c52.867,101.325 55.255,336.238 -8.836,433.768c-26.03,39.598 -62.658,48.536 -94.419,6.647c-4.597,-6.087 -11.344,-18.895 -15.672,-24.6c-16.986,57.958 -75.285,120.908 -128.838,44.691c-74.062,-105.399 -77.494,-413.549 6.985,-514.033c54.717,-65.114 110.061,7.996 121.524,57.016l-0.029,0.025Zm-41.285,-6.391c-18.448,3.004 -33.732,24.624 -41.105,38.095c-44.747,81.768 -46.09,270.36 2.895,350.778c7.881,12.936 24.12,34.403 43.285,33.665c9.134,-0.357 30.418,-10.721 30.896,-18.921c0.269,-4.685 -1.731,0.179 -13.702,-38.655c-27.373,-88.822 -25.344,-189.892 -5.88,-280.292c2.597,-12.121 20.388,-61.014 19.761,-66.158c-1.224,-10.16 -24.776,-20.32 -36.18,-18.462l0.03,-0.05Zm126.719,67.991c-5.194,1.349 -14.209,11.153 -17.433,15.38c-37.673,49.148 -39.314,215.56 3.552,262.237c26.478,28.852 46.359,-3.845 55.195,-25.897c23.583,-58.901 23.433,-158.163 -0.746,-216.859c-5.761,-13.955 -18.896,-40.489 -40.568,-34.836l-0,-0.025Z" style="fill:#e6e6e6;fill-rule:nonzero;"/><path d="M211.85,23.171c-44.777,38.299 -78.091,85.995 -96.539,137.841c-5.135,14.413 -9.254,29.361 -12.388,44.666c-23.434,114.592 15.045,232.112 101.404,322.13l6,6.264c-64.628,-21.874 -124.151,-63.815 -161.435,-113.955c-111.256,-149.682 -22.359,-333.895 162.928,-396.946l0.03,0Z" style="fill:#e6e6e6;fill-rule:nonzero;"/><ellipse cx="566.443" cy="289.61" rx="28.299" ry="77.617" style="fill:#e6e6e6;"/></g></svg>