<?xml version="1.0" encoding="UTF-8" standalone="no"?><!DOCTYPE svg PUBLIC "-//W3C//DTD SVG 1.1//EN" "http://www.w3.org/Graphics/SVG/1.1/DTD/svg11.dtd"><svg width="100%" height="100%" viewBox="0 0 2147 575" version="1.1" xmlns="http://www.w3.org/2000/svg" xmlns:xlink="http://www.w3.org/1999/xlink" xml:space="preserve" xmlns:serif="http://www.serif.com/" style="fill-rule:evenodd;clip-rule:evenodd;stroke-linejoin:round;stroke-miterlimit:2;"><g><path d="M369.685,82.791c7.253,-13.012 16.806,-29.03 30.179,-40.896c39.195,-34.76 73.166,6.824 89.106,37.382c52.867,101.325 55.255,336.238 -8.836,433.768c-26.03,39.598 -62.658,48.536 -94.419,6.647c-4.597,-6.087 -11.344,-18.895 -15.672,-24.6c-16.986,57.958 -75.285,120.908 -128.838,44.691c-74.062,-105.399 -77.494,-413.549 6.985,-514.033c54.717,-65.114 110.061,7.996 121.524,57.016l-0.029,0.025Zm-41.285,-6.391c-18.448,3.004 -33.732,24.624 -41.105,38.095c-44.747,81.768 -46.09,270.36 2.895,350.778c7.881,12.936 24.12,34.403 43.285,33.665c9.134,-0.357 30.418,-10.721 30.896,-18.921c0.269,-4.685 -1.731,0.179 -13.702,-38.655c-27.373,-88.822 -25.344,-189.892 -5.88,-280.292c2.597,-12.121 20.388,-61.014 19.761,-66.158c-1.224,-10.16 -24.776,-20.32 -36.18,-18.462l0.03,-0.05Zm126.719,67.991c-5.194,1.349 -14.209,11.153 -17.433,15.38c-37.673,49.148 -39.314,215.56 3.552,262.237c26.478,28.852 46.359,-3.845 55.195,-25.897c23.583,-58.901 23.433,-158.163 -0.746,-216.859c-5.761,-13.955 -18.896,-40.489 -40.568,-34.836l-0,-0.025Z" style="fill:#1a1a1a;fill-rule:nonzero;"/><path d="M211.85,23.171c-44.777,38.299 -78.091,85.995 -96.539,137.841c-5.135,14.413 -9.254,29.361 -12.388,44.666c-23.434,114.592 15.045,232.112 101.404,322.13l6,6.264c-64.628,-21.874 -124.151,-63.815 -161.435,-113.955c-111.256,-149.682 -22.359,-333.895 162.928,-396.946l0.03,0Z" style="fill:#1a1a1a;fill-rule:nonzero;"/><ellipse cx="566.443" cy="289.61" rx="28.299" ry="77.617" style="fill:#1a1a1a;"/></g><g><path d="M777.501,434.713c-30.845,0 -57.97,-6.35 -81.375,-19.051c-23.406,-12.701 -41.549,-30.119 -54.431,-52.254c-12.883,-22.135 -19.324,-47.537 -19.324,-76.204c0,-28.667 6.26,-54.068 18.779,-76.204c12.519,-22.135 29.756,-39.462 51.71,-51.982c21.954,-12.519 46.72,-18.778 74.299,-18.778c27.941,-0 52.617,6.168 74.026,18.506c21.41,12.338 38.193,29.665 50.349,51.982c12.157,22.317 18.235,48.353 18.235,78.109c-0,2.177 -0.091,4.717 -0.272,7.621c-0.182,2.903 -0.454,5.624 -0.817,8.164l-245.485,0l-0,-37.557l218.27,-0l-21.229,13.063c0.363,-18.507 -3.447,-35.017 -11.43,-49.532c-7.984,-14.515 -18.961,-25.855 -32.931,-34.02c-13.971,-8.165 -30.21,-12.247 -48.716,-12.247c-18.144,-0 -34.292,4.082 -48.444,12.247c-14.152,8.165 -25.22,19.595 -33.203,34.292c-7.983,14.696 -11.975,31.479 -11.975,50.349l-0,8.709c-0,19.232 4.445,36.378 13.336,51.437c8.89,15.06 21.318,26.762 37.285,35.109c15.967,8.346 34.292,12.519 54.976,12.519c17.055,-0 32.568,-2.903 46.538,-8.709c13.971,-5.806 26.218,-14.515 36.742,-26.127l28.848,33.747c-13.063,15.241 -29.302,26.853 -48.716,34.836c-19.414,7.983 -41.096,11.975 -65.045,11.975Z" style="fill:#1a1a1a;fill-rule:nonzero;"/><path d="M940.583,433.08l-0,-288.486l50.077,0l-0,78.381l-4.899,-19.595c7.983,-19.958 21.41,-35.199 40.279,-45.722c18.87,-10.524 42.094,-15.785 69.672,-15.785l0,50.621c-2.177,-0.363 -4.264,-0.545 -6.259,-0.545l-5.716,0c-27.941,0 -50.076,8.347 -66.406,25.039c-16.329,16.692 -24.494,40.823 -24.494,72.393l0,143.699l-52.254,0Z" style="fill:#1a1a1a;fill-rule:nonzero;"/><path d="M1228.68,431.719l-126.281,-288.486l54.432,0l112.128,261.271l-26.127,-0l114.306,-261.271l51.165,0l-126.28,288.486l-53.343,0Z" style="fill:#1a1a1a;fill-rule:nonzero;"/><path d="M1539.78,434.713c-30.844,0 -57.969,-6.35 -81.375,-19.051c-23.405,-12.701 -41.549,-30.119 -54.431,-52.254c-12.882,-22.135 -19.323,-47.537 -19.323,-76.204c-0,-28.667 6.259,-54.068 18.779,-76.204c12.519,-22.135 29.755,-39.462 51.709,-51.982c21.954,-12.519 46.721,-18.778 74.299,-18.778c27.942,-0 52.617,6.168 74.027,18.506c21.409,12.338 38.192,29.665 50.349,51.982c12.156,22.317 18.234,48.353 18.234,78.109c0,2.177 -0.091,4.717 -0.272,7.621c-0.181,2.903 -0.454,5.624 -0.816,8.164l-245.486,0l0,-37.557l218.27,-0l-21.228,13.063c0.363,-18.507 -3.448,-35.017 -11.431,-49.532c-7.983,-14.515 -18.96,-25.855 -32.931,-34.02c-13.971,-8.165 -30.209,-12.247 -48.716,-12.247c-18.144,-0 -34.292,4.082 -48.444,12.247c-14.152,8.165 -25.22,19.595 -33.203,34.292c-7.983,14.696 -11.975,31.479 -11.975,50.349l0,8.709c0,19.232 4.446,36.378 13.336,51.437c8.89,15.06 21.319,26.762 37.285,35.109c15.967,8.346 34.292,12.519 54.976,12.519c17.055,-0 32.568,-2.903 46.539,-8.709c13.971,-5.806 26.218,-14.515 36.741,-26.127l28.849,33.747c-13.064,15.241 -29.303,26.853 -48.716,34.836c-19.414,7.983 -41.096,11.975 -65.046,11.975Z" style="fill:#1a1a1a;fill-rule:nonzero;"/><path d="M1991.12,140.24c30.844,-0 57.969,6.35 81.375,19.051c23.405,12.7 41.549,30.118 54.431,52.254c12.882,22.135 19.323,47.536 19.323,76.203c0,28.668 -6.26,54.069 -18.779,76.204c-12.519,22.136 -29.756,39.463 -51.71,51.982c-21.954,12.519 -46.72,18.779 -74.298,18.779c-27.942,0 -52.617,-6.169 -74.027,-18.507c-21.41,-12.337 -38.193,-29.665 -50.349,-51.982c-12.156,-22.316 -18.234,-48.353 -18.234,-78.108c-0,-2.178 0.09,-4.718 0.272,-7.621c0.181,-2.903 0.453,-5.624 0.816,-8.165l245.486,0l-0,37.558l-218.27,0l21.228,-13.063c-0.363,18.506 3.447,35.017 11.431,49.532c7.983,14.515 18.96,25.855 32.931,34.02c13.97,8.164 30.209,12.247 48.716,12.247c18.143,-0 34.291,-4.083 48.444,-12.247c14.152,-8.165 25.219,-19.596 33.203,-34.292c7.983,-14.697 11.975,-31.48 11.975,-50.349l-0,-8.709c-0,-19.232 -4.446,-36.378 -13.336,-51.438c-8.891,-15.059 -21.319,-26.762 -37.286,-35.108c-15.966,-8.346 -34.291,-12.519 -54.975,-12.519c-17.055,-0 -32.568,2.903 -46.539,8.709c-13.971,5.806 -26.218,14.515 -36.741,26.127l-28.849,-33.747c13.064,-15.241 29.302,-26.853 48.716,-34.836c19.414,-7.984 41.096,-11.975 65.046,-11.975Z" style="fill:#1a1a1a;fill-rule:nonzero;"/><path d="M1626.33,431.719l124.103,-161.116l-0.544,26.671l-118.116,-154.041l58.242,0l90.356,118.661l-22.317,-0l90.356,-118.661l57.153,0l-119.749,155.13l0.544,-27.76l125.192,161.116l-59.33,0l-95.255,-126.28l21.228,3.266l-93.622,123.014l-58.241,0Z" style="fill:#1a1a1a;fill-rule:nonzero;"/></g></svg>