<?xml version="1.0" encoding="UTF-8"?>
<svg id="Layer_1" xmlns="http://www.w3.org/2000/svg" version="1.1" viewBox="0 0 841.89 595.28">
  <!-- Generator: Adobe Illustrator 29.2.1, SVG Export Plug-In . SVG Version: 2.1.0 Build 116)  -->
  <defs>
    <style>
      .st0 {
        font-family: AcuminPro-Medium, 'Acumin Pro';
        font-weight: 500;
      }

      .st0, .st1, .st2, .st3 {
        fill: #fff;
      }

      .st0, .st2, .st3 {
        font-size: 136.06px;
      }

      .st4, .st5 {
        fill: #232323;
      }

      .st5 {
        font-size: 177.7px;
      }

      .st5, .st3 {
        font-family: Godber, Godber;
      }

      .st2 {
        font-family: QurovaDEMO-Regular, 'Qurova DEMO';
      }
    </style>
  </defs>
  <g>
    <path class="st1" d="M-766.51,374.59c1.86-3.92,4.31-8.73,7.74-12.29,10.05-10.45,18.76,2.05,22.85,11.24,13.56,30.46,14.18,101.1-2.27,130.43-6.67,11.9-16.08,14.59-24.22,2-1.18-1.83-2.91-5.68-4.02-7.4h0c-4.35,17.42-19.31,36.35-33.05,13.43-18.99-31.69-19.87-124.35,1.79-154.56,14.04-19.58,28.23,2.4,31.17,17.15ZM-777.1,372.67c-4.73.9-8.65,7.41-10.54,11.45-11.48,24.58-11.82,81.3.75,105.47,2.02,3.89,6.19,10.35,11.11,10.12,2.34-.11,7.8-3.22,7.93-5.69.07-1.41-.44.05-3.51-11.62-7.02-26.71-6.5-57.1-1.51-84.28.67-3.64,5.23-18.34,5.07-19.89-.31-3.05-6.35-6.11-9.28-5.55ZM-744.6,393.11c-1.33.41-3.64,3.35-4.47,4.62-9.66,14.78-10.08,64.81.91,78.85,6.79,8.67,11.89-1.16,14.16-7.79,6.05-17.71,6.01-47.55-.19-65.21-1.48-4.2-4.85-12.17-10.4-10.48Z"/>
    <path class="st1" d="M-809.46,358.92c-11.49,11.52-20.03,25.85-24.76,41.45-1.31,4.33-2.38,8.83-3.18,13.43-6.01,34.46,3.86,69.79,26.01,96.86l1.54,1.88c-16.58-6.58-31.85-19.19-41.41-34.27-28.54-45-5.74-100.39,41.79-119.36Z"/>
    <ellipse class="st1" cx="-712.58" cy="436.44" rx="7.26" ry="23.34"/>
  </g>
  <g>
    <path class="st1" d="M-766.51,131.14c1.86-3.92,4.31-8.73,7.74-12.29,10.05-10.45,18.76,2.05,22.85,11.24,13.56,30.46,14.18,101.1-2.27,130.43-6.67,11.9-16.08,14.59-24.22,2-1.18-1.83-2.91-5.68-4.02-7.4h0c-4.35,17.42-19.31,36.35-33.05,13.43-18.99-31.69-19.87-124.35,1.79-154.56,14.04-19.58,28.23,2.4,31.17,17.15ZM-777.1,129.22c-4.73.9-8.65,7.41-10.54,11.45-11.48,24.58-11.82,81.3.75,105.47,2.02,3.89,6.19,10.35,11.11,10.12,2.34-.11,7.8-3.22,7.93-5.69.07-1.41-.44.05-3.51-11.62-7.02-26.71-6.5-57.1-1.51-84.28.67-3.64,5.23-18.34,5.07-19.89-.31-3.05-6.35-6.11-9.28-5.55ZM-744.6,149.66c-1.33.41-3.64,3.35-4.47,4.62-9.66,14.78-10.08,64.81.91,78.85,6.79,8.67,11.89-1.16,14.16-7.79,6.05-17.71,6.01-47.55-.19-65.21-1.48-4.2-4.85-12.17-10.4-10.48Z"/>
    <path class="st1" d="M-809.46,115.47c-11.49,11.52-20.03,25.85-24.76,41.45-1.31,4.33-2.38,8.83-3.18,13.43-6.01,34.46,3.86,69.79,26.01,96.86l1.54,1.88c-16.58-6.58-31.85-19.19-41.41-34.27-28.54-45-5.74-100.39,41.79-119.36Z"/>
    <ellipse class="st1" cx="-712.58" cy="192.99" rx="7.26" ry="23.34"/>
  </g>
  <text class="st0" transform="translate(-678.96 695.09)"><tspan x="0" y="0">ervexa</tspan></text>
  <text class="st3" transform="translate(-678.96 468.47)"><tspan x="0" y="0">ervexa</tspan></text>
  <g>
    <path class="st4" d="M184.65,207.6c2.43-5.11,5.63-11.4,10.11-16.06,13.13-13.65,24.51,2.68,29.85,14.68,17.71,39.79,18.51,132.04-2.96,170.34-8.72,15.55-20.99,19.06-31.63,2.61-1.54-2.39-3.8-7.42-5.25-9.66h0c-5.69,22.76-25.22,47.48-43.16,17.55-24.81-41.39-25.96-162.4,2.34-201.86,18.33-25.57,36.87,3.14,40.71,22.39ZM170.82,205.09c-6.18,1.18-11.3,9.67-13.77,14.96-14.99,32.11-15.44,106.17.97,137.75,2.64,5.08,8.08,13.51,14.5,13.22,3.06-.14,10.19-4.21,10.35-7.43.09-1.84-.58.07-4.59-15.18-9.17-34.88-8.49-74.57-1.97-110.07.87-4.76,6.83-23.96,6.62-25.98-.41-3.99-8.3-7.98-12.12-7.25ZM213.27,231.79c-1.74.53-4.76,4.38-5.84,6.04-12.62,19.3-13.17,84.65,1.19,102.98,8.87,11.33,15.53-1.51,18.49-10.17,7.9-23.13,7.85-62.11-.25-85.16-1.93-5.48-6.33-15.9-13.59-13.68Z"/>
    <path class="st4" d="M128.56,187.13c-15,15.04-26.16,33.77-32.34,54.13-1.72,5.66-3.1,11.53-4.15,17.54-7.85,45,5.04,91.15,33.97,126.5l2.01,2.46c-21.65-8.59-41.59-25.06-54.08-44.75-37.27-58.78-7.49-131.12,54.58-155.88Z"/>
    <ellipse class="st4" cx="255.09" cy="288.37" rx="9.48" ry="30.48"/>
  </g>
  <text class="st5" transform="translate(291.16 330.21)"><tspan x="0" y="0">ervexa</tspan></text>
  <text class="st2" transform="translate(-678.96 227.74)"><tspan x="0" y="0">ervexa</tspan></text>
</svg>