<?xml version="1.0" encoding="UTF-8" standalone="no"?><!DOCTYPE svg PUBLIC "-//W3C//DTD SVG 1.1//EN" "http://www.w3.org/Graphics/SVG/1.1/DTD/svg11.dtd"><svg width="100%" height="100%" viewBox="0 0 1252 2153" version="1.1" xmlns="http://www.w3.org/2000/svg" xmlns:xlink="http://www.w3.org/1999/xlink" xml:space="preserve" xmlns:serif="http://www.serif.com/" style="fill-rule:evenodd;clip-rule:evenodd;stroke-linejoin:round;stroke-miterlimit:2;"><g><path d="M691.279,1424.453l94.265,89.028c0,0 -31.817,38.057 -78.554,5.237c-46.737,-32.82 -15.711,-94.265 -15.711,-94.265Z" style="fill:#ececec;"/><path d="M230.426,0l-141.398,581.303c0,0 -29.246,122.223 47.133,199.004c76.378,76.782 377.061,398.009 377.061,398.009l-513.222,528.933l0,219.952l219.952,225.189l5.237,-219.952l-109.976,-109.976l507.985,-539.407l408.483,398.009l-89.028,57.607l-70.874,14.586l-85.186,-16.893l-89.637,-18.142l-168.022,-63.342l277.559,230.426c0,0 54.35,22.937 146.635,10.474c92.285,-12.463 151.872,-78.554 151.872,-78.554l146.635,-141.398l-513.222,-492.274l31.422,-267.085l-141.398,141.398l-109.976,-99.502l-36.659,-502.748l-89.028,356.113l-141.398,-136.161c0,0 -52.356,0.597 -20.948,-675.568" style="fill:#ececec;"/></g></svg>