<?xml version="1.0" encoding="UTF-8" standalone="no"?><!DOCTYPE svg PUBLIC "-//W3C//DTD SVG 1.1//EN" "http://www.w3.org/Graphics/SVG/1.1/DTD/svg11.dtd"><svg width="100%" height="100%" viewBox="0 0 2208 2601" version="1.1" xmlns="http://www.w3.org/2000/svg" xmlns:xlink="http://www.w3.org/1999/xlink" xml:space="preserve" xmlns:serif="http://www.serif.com/" style="fill-rule:evenodd;clip-rule:evenodd;stroke-linejoin:round;stroke-miterlimit:2;"><g id="Layer1"><path d="M2207.134,551.3l0,1102.6c0,304.271 -247.029,551.3 -551.3,551.3l-1102.6,0c-304.271,0 -551.3,-247.029 -551.3,-551.3l0,-1102.6c0,-304.271 247.029,-551.3 551.3,-551.3l1102.6,0c304.271,0 551.3,247.029 551.3,551.3Z" style="fill:#ececec;"/></g><g><path d="M1169.996,1448.649l94.265,89.028c0,0 -31.817,38.057 -78.554,5.237c-46.737,-32.82 -15.711,-94.265 -15.711,-94.265Z" style="fill:#2f2f2f;"/><path d="M709.143,24.195l-141.398,581.303c0,0 -29.246,122.223 47.133,199.004c76.378,76.782 377.061,398.009 377.061,398.009l-513.222,528.933l0,219.952l219.952,225.189l5.237,-219.952l-109.976,-109.976l507.985,-539.407l408.483,398.009l-89.028,57.607l-70.874,14.586l-85.186,-16.893l-89.637,-18.142l-168.022,-63.342l277.559,230.426c0,0 54.35,22.937 146.635,10.474c92.285,-12.463 151.872,-78.554 151.872,-78.554l146.635,-141.398l-513.222,-492.274l31.422,-267.085l-141.398,141.398l-109.976,-99.502l-36.659,-502.748l-89.028,356.113l-141.398,-136.161c0,0 -52.356,0.597 -20.948,-675.568" style="fill:#2f2f2f;"/></g><g><path d="M114.442,2600.18c-22.775,0 -44.553,-3.487 -65.335,-10.462c-20.782,-6.975 -37.151,-16.013 -49.108,-27.116l15.8,-33.308c11.387,9.964 25.906,18.22 43.556,24.767c17.65,6.548 36.012,9.822 55.086,9.822c17.366,0 31.457,-1.993 42.275,-5.978c10.818,-3.986 18.789,-9.466 23.913,-16.44c5.124,-6.975 7.686,-14.875 7.686,-23.7c0,-10.249 -3.345,-18.504 -10.035,-24.767c-6.69,-6.263 -15.373,-11.316 -26.048,-15.159c-10.676,-3.843 -22.419,-7.188 -35.229,-10.035c-12.811,-2.847 -25.693,-6.192 -38.646,-10.035c-12.953,-3.843 -24.767,-8.754 -35.443,-14.732c-10.676,-5.978 -19.287,-14.021 -25.835,-24.127c-6.548,-10.106 -9.822,-23.13 -9.822,-39.073c0,-15.373 4.057,-29.536 12.17,-42.489c8.113,-12.953 20.639,-23.344 37.578,-31.173c16.939,-7.829 38.503,-11.743 64.694,-11.743c17.366,0 34.589,2.277 51.67,6.832c17.081,4.555 31.884,11.103 44.41,19.643l-14.092,34.162c-12.811,-8.54 -26.333,-14.732 -40.567,-18.576c-14.234,-3.843 -28.041,-5.765 -41.421,-5.765c-16.796,0 -30.603,2.135 -41.421,6.405c-10.818,4.27 -18.718,9.964 -23.7,17.081c-4.982,7.117 -7.473,15.088 -7.473,23.913c0,10.533 3.345,18.931 10.035,25.194c6.69,6.263 15.373,11.245 26.048,14.946c10.676,3.701 22.419,7.046 35.229,10.035c12.811,2.989 25.693,6.334 38.646,10.035c12.953,3.701 24.767,8.54 35.443,14.519c10.676,5.978 19.287,13.949 25.835,23.913c6.548,9.964 9.822,22.775 9.822,38.432c0,15.088 -4.128,29.109 -12.384,42.062c-8.256,12.953 -20.995,23.344 -38.219,31.173c-17.223,7.829 -38.93,11.743 -65.121,11.743Z" style="fill:#ececec;fill-rule:nonzero;"/><path d="M347.597,2596.764l0,-261.766l-102.486,0l0,-37.151l247.247,0l0,37.151l-102.486,0l0,261.766l-42.275,0Z" style="fill:#ececec;fill-rule:nonzero;"/><path d="M478.694,2596.764l135.367,-298.917l42.275,0l135.794,298.917l-44.838,0l-120.848,-275.003l17.081,0l-120.848,275.003l-43.983,0Zm57.648,-74.729l11.53,-34.162l168.247,0l12.384,34.162l-192.161,0Z" style="fill:#ececec;fill-rule:nonzero;"/><path d="M967.209,2600.18c-23.059,0 -44.268,-3.772 -63.627,-11.316c-19.358,-7.544 -36.155,-18.22 -50.389,-32.027c-14.234,-13.807 -25.337,-29.963 -33.308,-48.467c-7.971,-18.504 -11.957,-38.859 -11.957,-61.064c0,-22.205 3.986,-42.56 11.957,-61.064c7.971,-18.504 19.145,-34.66 33.521,-48.467c14.376,-13.807 31.244,-24.483 50.602,-32.027c19.358,-7.544 40.71,-11.316 64.054,-11.316c23.629,0 45.265,3.843 64.908,11.53c19.643,7.686 36.297,19.216 49.962,34.589l-26.475,26.475c-12.241,-11.957 -25.55,-20.711 -39.927,-26.262c-14.376,-5.551 -29.963,-8.327 -46.759,-8.327c-17.081,0 -32.952,2.847 -47.613,8.54c-14.661,5.694 -27.33,13.665 -38.005,23.913c-10.676,10.249 -18.931,22.419 -24.767,36.511c-5.836,14.092 -8.754,29.393 -8.754,45.905c0,16.227 2.918,31.386 8.754,45.478c5.836,14.092 14.092,26.333 24.767,36.724c10.676,10.391 23.273,18.433 37.792,24.127c14.519,5.694 30.319,8.54 47.4,8.54c15.942,0 31.244,-2.491 45.905,-7.473c14.661,-4.982 28.255,-13.309 40.781,-24.981l24.34,32.454c-14.803,12.526 -32.098,21.992 -51.883,28.397c-19.785,6.405 -40.211,9.608 -61.278,9.608Zm113.161,-38.005l-40.994,-5.551l0,-111.026l40.994,0l0,116.578Z" style="fill:#ececec;fill-rule:nonzero;"/><path d="M1161.932,2596.764l0,-298.917l134.085,0c34.447,0 60.922,6.904 79.426,20.711c18.504,13.807 27.757,32.667 27.757,56.581c0,16.227 -3.63,29.892 -10.889,40.994c-7.259,11.103 -17.01,19.643 -29.251,25.621c-12.241,5.978 -25.479,8.968 -39.713,8.968l7.686,-12.811c17.081,0 32.169,2.989 45.265,8.968c13.095,5.978 23.486,14.732 31.173,26.262c7.686,11.53 11.53,25.835 11.53,42.916c0,25.621 -9.608,45.478 -28.824,59.57c-19.216,14.092 -47.756,21.138 -85.618,21.138l-142.626,0Zm42.702,-34.589l98.215,0c23.629,0 41.706,-3.986 54.232,-11.957c12.526,-7.971 18.789,-20.497 18.789,-37.578c0,-17.366 -6.263,-30.034 -18.789,-38.005c-12.526,-7.971 -30.603,-11.957 -54.232,-11.957l-102.059,0l0,-34.589l91.383,0c21.636,0 38.432,-3.986 50.389,-11.957c11.957,-7.971 17.935,-19.928 17.935,-35.87c0,-15.942 -5.978,-27.899 -17.935,-35.87c-11.957,-7.971 -28.753,-11.957 -50.389,-11.957l-87.54,0l0,229.739Z" style="fill:#ececec;fill-rule:nonzero;"/><path d="M1533.87,2596.764l0,-114.442l9.822,26.475l-128.534,-210.95l45.692,0l108.037,178.069l-24.767,0l108.464,-178.069l42.275,0l-128.107,210.95l9.395,-26.475l0,114.442l-42.275,0Z" style="fill:#ececec;fill-rule:nonzero;"/><path d="M1793.927,2596.764l0,-261.766l-102.486,0l0,-37.151l247.247,0l0,37.151l-102.486,0l0,261.766l-42.275,0Z" style="fill:#ececec;fill-rule:nonzero;"/><path d="M1985.234,2596.764l0,-298.917l210.95,0l0,37.151l-168.247,0l0,224.615l174.226,0l0,37.151l-216.928,0Zm38.859,-133.658l0,-36.297l153.729,0l0,36.297l-153.729,0Z" style="fill:#ececec;fill-rule:nonzero;"/></g></svg>