<?xml version="1.0" encoding="UTF-8" standalone="no"?>
<!DOCTYPE svg PUBLIC "-//W3C//DTD SVG 1.1//EN" "http://www.w3.org/Graphics/SVG/1.1/DTD/svg11.dtd">
<svg width="100%" height="100%" viewBox="0 0 3446 652" version="1.1" xmlns="http://www.w3.org/2000/svg" xmlns:xlink="http://www.w3.org/1999/xlink" xml:space="preserve" xmlns:serif="http://www.serif.com/" style="fill-rule:evenodd;clip-rule:evenodd;stroke-linejoin:round;stroke-miterlimit:2;">
    <g transform="matrix(1,0,0,1,-30.5564,-820.945)">
        <g transform="matrix(0.295447,0,0,0.295447,29.985,820.945)">
            <g id="Layer1">
                <path d="M2207.13,551.3L2207.13,1653.9C2207.13,1958.17 1960.11,2205.2 1655.83,2205.2L553.234,2205.2C248.963,2205.2 1.934,1958.17 1.934,1653.9L1.934,551.3C1.934,247.029 248.963,0 553.234,0L1655.83,0C1960.11,0 2207.13,247.029 2207.13,551.3Z" style="fill:rgb(236,236,236);"/>
            </g>
        </g>
        <g transform="matrix(0.951692,0,0,0.951692,-6.12755,0)">
            <g transform="matrix(0.310444,0,0,0.310444,37.9457,862.616)">
                <path d="M1170,1448.65L1264.26,1537.68C1264.26,1537.68 1232.44,1575.73 1185.71,1542.91C1138.97,1510.09 1170,1448.65 1170,1448.65Z" style="fill:rgb(47,47,47);"/>
            </g>
            <g transform="matrix(0.310444,0,0,0.310444,37.9457,862.616)">
                <path d="M709.143,24.195L567.745,605.498C567.745,605.498 538.499,727.721 614.878,804.502C691.256,881.284 991.939,1202.51 991.939,1202.51L478.717,1731.44L478.717,1951.4L698.669,2176.59L703.906,1956.63L593.93,1846.66L1101.91,1307.25L1510.4,1705.26L1421.37,1762.87L1350.5,1777.45L1265.31,1760.56L1175.67,1742.42L1007.65,1679.08L1285.21,1909.5C1285.21,1909.5 1339.56,1932.44 1431.85,1919.98C1524.13,1907.51 1583.72,1841.42 1583.72,1841.42L1730.35,1700.02L1217.13,1207.75L1248.55,940.664L1107.15,1082.06L997.178,982.56L960.519,479.812L871.491,835.925L730.093,699.764C730.093,699.764 677.737,700.361 709.145,24.196" style="fill:rgb(47,47,47);"/>
            </g>
        </g>
        <g transform="matrix(4.04879,0,0,4.04879,2179.37,-8817.38)">
            <g transform="matrix(0.310444,0,0,0.310444,-363.296,1704.47)">
                <path d="M114.442,2600.18C91.667,2600.18 69.889,2596.69 49.107,2589.72C28.325,2582.74 11.956,2573.7 -0.001,2562.6L15.799,2529.29C27.186,2539.26 41.705,2547.51 59.355,2554.06C77.005,2560.61 95.367,2563.88 114.441,2563.88C131.807,2563.88 145.898,2561.89 156.716,2557.91C167.534,2553.92 175.505,2548.44 180.629,2541.47C185.753,2534.49 188.315,2526.59 188.315,2517.76C188.315,2507.52 184.97,2499.26 178.28,2493C171.59,2486.74 162.907,2481.68 152.232,2477.84C141.556,2474 129.813,2470.65 117.003,2467.8C104.192,2464.96 91.31,2461.61 78.357,2457.77C65.404,2453.93 53.59,2449.01 42.914,2443.04C32.238,2437.06 23.627,2429.02 17.079,2418.91C10.531,2408.8 7.257,2395.78 7.257,2379.84C7.257,2364.46 11.314,2350.3 19.427,2337.35C27.54,2324.39 40.066,2314 57.005,2306.18C73.944,2298.35 95.508,2294.43 121.699,2294.43C139.065,2294.43 156.288,2296.71 173.369,2301.26C190.45,2305.82 205.253,2312.37 217.779,2320.91L203.687,2355.07C190.876,2346.53 177.354,2340.34 163.12,2336.49C148.886,2332.65 135.079,2330.73 121.699,2330.73C104.903,2330.73 91.096,2332.86 80.278,2337.13C69.46,2341.4 61.56,2347.1 56.578,2354.21C51.596,2361.33 49.105,2369.3 49.105,2378.13C49.105,2388.66 52.45,2397.06 59.14,2403.32C65.83,2409.58 74.513,2414.57 85.188,2418.27C95.864,2421.97 107.607,2425.31 120.417,2428.3C133.228,2431.29 146.11,2434.64 159.063,2438.34C172.016,2442.04 183.83,2446.88 194.506,2452.86C205.182,2458.83 213.793,2466.8 220.341,2476.77C226.889,2486.73 230.163,2499.54 230.163,2515.2C230.163,2530.29 226.035,2544.31 217.779,2557.26C209.523,2570.22 196.784,2580.61 179.56,2588.44C162.337,2596.26 140.63,2600.18 114.439,2600.18L114.442,2600.18Z" style="fill:rgb(236,236,236);fill-rule:nonzero;"/>
            </g>
            <g transform="matrix(0.310444,0,0,0.310444,-363.296,1704.47)">
                <path d="M347.597,2596.76L347.597,2335L245.111,2335L245.111,2297.85L492.358,2297.85L492.358,2335L389.872,2335L389.872,2596.76L347.597,2596.76Z" style="fill:rgb(236,236,236);fill-rule:nonzero;"/>
            </g>
            <g transform="matrix(0.310444,0,0,0.310444,-363.296,1704.47)">
                <path d="M478.694,2596.76L614.061,2297.85L656.336,2297.85L792.13,2596.76L747.292,2596.76L626.444,2321.76L643.525,2321.76L522.677,2596.76L478.694,2596.76ZM536.342,2522.03L547.872,2487.87L716.119,2487.87L728.503,2522.03L536.342,2522.03Z" style="fill:rgb(236,236,236);fill-rule:nonzero;"/>
            </g>
            <g transform="matrix(0.310444,0,0,0.310444,-363.296,1704.47)">
                <path d="M967.209,2600.18C944.15,2600.18 922.941,2596.41 903.582,2588.86C884.224,2581.32 867.427,2570.64 853.193,2556.84C838.959,2543.03 827.856,2526.87 819.885,2508.37C811.914,2489.87 807.928,2469.51 807.928,2447.31C807.928,2425.1 811.914,2404.75 819.885,2386.24C827.856,2367.74 839.03,2351.58 853.406,2337.78C867.782,2323.97 884.65,2313.29 904.008,2305.75C923.366,2298.2 944.718,2294.43 968.062,2294.43C991.691,2294.43 1013.33,2298.28 1032.97,2305.96C1052.61,2313.65 1069.27,2325.18 1082.93,2340.55L1056.46,2367.03C1044.22,2355.07 1030.91,2346.32 1016.53,2340.76C1002.15,2335.21 986.567,2332.44 969.771,2332.44C952.69,2332.44 936.819,2335.28 922.158,2340.98C907.497,2346.67 894.828,2354.64 884.153,2364.89C873.477,2375.14 865.222,2387.31 859.386,2401.4C853.55,2415.49 850.632,2430.79 850.632,2447.31C850.632,2463.53 853.55,2478.69 859.386,2492.78C865.222,2506.88 873.478,2519.12 884.153,2529.51C894.829,2539.9 907.426,2547.94 921.945,2553.64C936.464,2559.33 952.264,2562.18 969.345,2562.18C985.287,2562.18 1000.59,2559.68 1015.25,2554.7C1029.91,2549.72 1043.51,2541.39 1056.03,2529.72L1080.37,2562.18C1065.57,2574.7 1048.27,2584.17 1028.49,2590.57C1008.7,2596.98 988.277,2600.18 967.21,2600.18L967.209,2600.18ZM1080.37,2562.18L1039.38,2556.62L1039.38,2445.6L1080.37,2445.6L1080.37,2562.18L1080.37,2562.18Z" style="fill:rgb(236,236,236);fill-rule:nonzero;"/>
            </g>
            <g transform="matrix(0.310444,0,0,0.310444,-363.296,1704.47)">
                <path d="M1161.93,2596.76L1161.93,2297.85L1296.02,2297.85C1330.46,2297.85 1356.94,2304.75 1375.44,2318.56C1393.95,2332.37 1403.2,2351.22 1403.2,2375.14C1403.2,2391.37 1399.57,2405.03 1392.31,2416.13C1385.05,2427.24 1375.3,2435.78 1363.06,2441.75C1350.82,2447.73 1337.58,2450.72 1323.35,2450.72L1331.03,2437.91C1348.11,2437.91 1363.2,2440.9 1376.3,2446.88C1389.39,2452.86 1399.78,2461.61 1407.47,2473.14C1415.16,2484.67 1419,2498.98 1419,2516.06C1419,2541.68 1409.39,2561.53 1390.18,2575.63C1370.96,2589.72 1342.42,2596.76 1304.56,2596.76L1161.93,2596.76L1161.93,2596.76ZM1204.63,2562.18L1302.85,2562.18C1326.48,2562.18 1344.56,2558.19 1357.08,2550.22C1369.61,2542.25 1375.87,2529.72 1375.87,2512.64C1375.87,2495.27 1369.61,2482.61 1357.08,2474.64C1344.56,2466.66 1326.48,2462.68 1302.85,2462.68L1200.79,2462.68L1200.79,2428.09L1292.17,2428.09C1313.81,2428.09 1330.61,2424.1 1342.56,2416.13C1354.52,2408.16 1360.5,2396.2 1360.5,2380.26C1360.5,2364.32 1354.52,2352.36 1342.56,2344.39C1330.61,2336.42 1313.81,2332.43 1292.17,2332.43L1204.63,2332.43L1204.63,2562.17L1204.63,2562.18Z" style="fill:rgb(236,236,236);fill-rule:nonzero;"/>
            </g>
            <g transform="matrix(0.310444,0,0,0.310444,-363.296,1704.47)">
                <path d="M1533.87,2596.76L1533.87,2482.32L1543.69,2508.8L1415.16,2297.85L1460.85,2297.85L1568.89,2475.92L1544.12,2475.92L1652.58,2297.85L1694.86,2297.85L1566.75,2508.8L1576.15,2482.32L1576.15,2596.76L1533.87,2596.76Z" style="fill:rgb(236,236,236);fill-rule:nonzero;"/>
            </g>
            <g transform="matrix(0.310444,0,0,0.310444,-363.296,1704.47)">
                <path d="M1793.93,2596.76L1793.93,2335L1691.44,2335L1691.44,2297.85L1938.69,2297.85L1938.69,2335L1836.2,2335L1836.2,2596.76L1793.93,2596.76Z" style="fill:rgb(236,236,236);fill-rule:nonzero;"/>
            </g>
            <g transform="matrix(0.310444,0,0,0.310444,-363.296,1704.47)">
                <path d="M1985.23,2596.76L1985.23,2297.85L2196.18,2297.85L2196.18,2335L2027.94,2335L2027.94,2559.61L2202.16,2559.61L2202.16,2596.76L1985.23,2596.76ZM2024.09,2463.11L2024.09,2426.81L2177.82,2426.81L2177.82,2463.11L2024.09,2463.11Z" style="fill:rgb(236,236,236);fill-rule:nonzero;"/>
            </g>
        </g>
    </g>
</svg>
