<?xml version="1.0" encoding="UTF-8" standalone="no"?><!DOCTYPE svg PUBLIC "-//W3C//DTD SVG 1.1//EN" "http://www.w3.org/Graphics/SVG/1.1/DTD/svg11.dtd"><svg width="100%" height="100%" viewBox="0 0 1360 1807" version="1.1" xmlns="http://www.w3.org/2000/svg" xmlns:xlink="http://www.w3.org/1999/xlink" xml:space="preserve" xmlns:serif="http://www.serif.com/" style="fill-rule:evenodd;clip-rule:evenodd;stroke-linejoin:round;stroke-miterlimit:2;"><g><path d="M457.195,0.356l222.791,0l0,224.151l-222.791,-224.151Z"/><path d="M455.85,447.524l224.151,-222.791l0,455.833l-224.151,-233.042Z"/><path d="M679.936,680.438l0,222.791l-224.151,0l224.151,-222.791Z"/><path d="M1.818,222.791l0,-222.791l224.151,0l-224.151,222.791Z"/><path d="M457.195,0.356l0,228.355l-455.514,455.514l0,-224.037l455.514,-459.832Z"/><path d="M454.152,449.295l-454.152,454.094l222.324,0l232.074,-225.75l-0.245,-228.344Z"/></g><g><path d="M902.468,1806.152l-222.791,0l0,-224.151l222.791,224.151Z"/><path d="M903.814,1358.985l-224.151,222.791l-0,-455.833l224.151,233.042Z"/><path d="M679.727,1126.071l0,-222.791l224.151,0l-224.151,222.791Z"/><path d="M1357.845,1583.718l-0,222.791l-224.151,0l224.151,-222.791Z"/><path d="M902.468,1806.152l0,-228.355l455.514,-455.514l0,224.037l-455.514,459.832Z"/><path d="M905.511,1357.214l454.152,-454.094l-222.324,0l-232.074,225.75l0.245,228.344Z"/></g><g><path d="M1135.167,903.164l222.791,0l0,-224.151l-222.791,224.151Z"/><path d="M1133.821,455.997l224.151,222.791l0,-455.833l-224.151,233.042Z"/><path d="M1357.908,223.083l0,-222.791l-224.151,0l224.151,222.791Z"/><path d="M679.79,680.73l0,222.791l224.151,0l-224.151,-222.791Z"/><path d="M1135.167,903.164l0,-228.355l-455.514,-455.514l0,224.037l455.514,459.832Z"/><path d="M1132.124,454.226l-454.152,-454.094l222.324,0l232.074,225.75l-0.245,228.344Z"/></g><g><path d="M224.713,903.418l-222.791,0l0,224.151l222.791,-224.151Z"/><path d="M226.059,1350.586l-224.151,-222.791l-0,455.833l224.151,-233.042Z"/><path d="M1.972,1583.5l0,222.791l224.151,0l-224.151,-222.791Z"/><path d="M680.09,1125.853l0,-222.791l-224.151,0l224.151,222.791Z"/><path d="M224.713,903.418l-0,228.355l455.514,455.514l0,-224.037l-455.514,-459.832Z"/><path d="M227.756,1352.357l454.152,454.094l-222.324,-0l-232.074,-225.75l0.245,-228.344Z"/></g></svg>