<?xml version="1.0" encoding="UTF-8" standalone="no"?><!DOCTYPE svg PUBLIC "-//W3C//DTD SVG 1.1//EN" "http://www.w3.org/Graphics/SVG/1.1/DTD/svg11.dtd"><svg width="100%" height="100%" viewBox="0 0 1807 1360" version="1.1" xmlns="http://www.w3.org/2000/svg" xmlns:xlink="http://www.w3.org/1999/xlink" xml:space="preserve" xmlns:serif="http://www.serif.com/" style="fill-rule:evenodd;clip-rule:evenodd;stroke-linejoin:round;stroke-miterlimit:2;"><g><path d="M0.356,902.468l0,-222.791l224.151,0l-224.151,222.791Z" style="fill:#fff;"/><path d="M447.524,903.814l-222.791,-224.151l455.833,-0l-233.042,224.151Z" style="fill:#fff;"/><path d="M680.438,679.727l222.791,0l0,224.151l-222.791,-224.151Z" style="fill:#fff;"/><path d="M222.791,1357.845l-222.791,0l-0,-224.151l222.791,224.151Z" style="fill:#fff;"/><path d="M0.356,902.468l228.355,0l455.514,455.514l-224.037,0l-459.832,-455.514Z" style="fill:#fff;"/><path d="M449.295,905.511l454.094,454.152l0,-222.324l-225.75,-232.074l-228.344,0.245Z" style="fill:#fff;"/></g><g><path d="M1806.152,457.195l0,222.791l-224.151,0l224.151,-222.791Z" style="fill:#fff;"/><path d="M1358.985,455.85l222.791,224.151l-455.833,0l233.042,-224.151Z" style="fill:#fff;"/><path d="M1126.071,679.936l-222.791,0l-0,-224.151l222.791,224.151Z" style="fill:#fff;"/><path d="M1583.718,1.818l222.791,0l0,224.151l-222.791,-224.151Z" style="fill:#fff;"/><path d="M1806.152,457.195l-228.355,0l-455.514,-455.514l224.037,0l459.832,455.514Z" style="fill:#fff;"/><path d="M1357.214,454.152l-454.094,-454.152l0,222.324l225.75,232.074l228.344,-0.245Z" style="fill:#fff;"/></g><g><path d="M903.164,224.496l0,-222.791l-224.151,0l224.151,222.791Z" style="fill:#fff;"/><path d="M455.997,225.842l222.791,-224.151l-455.833,-0l233.042,224.151Z" style="fill:#fff;"/><path d="M223.083,1.755l-222.791,0l0,224.151l222.791,-224.151Z" style="fill:#fff;"/><path d="M680.73,679.873l222.791,-0l0,-224.151l-222.791,224.151Z" style="fill:#fff;"/><path d="M903.164,224.496l-228.355,0l-455.514,455.514l224.037,0l459.832,-455.514Z" style="fill:#fff;"/><path d="M454.226,227.54l-454.094,454.152l0,-222.324l225.75,-232.074l228.344,0.245Z" style="fill:#fff;"/></g><g><path d="M903.418,1134.95l0,222.791l224.151,0l-224.151,-222.791Z" style="fill:#fff;"/><path d="M1350.586,1133.605l-222.791,224.151l455.833,0l-233.042,-224.151Z" style="fill:#fff;"/><path d="M1583.5,1357.691l222.791,0l-0,-224.151l-222.791,224.151Z" style="fill:#fff;"/><path d="M1125.853,679.573l-222.791,0l0,224.151l222.791,-224.151Z" style="fill:#fff;"/><path d="M903.418,1134.95l228.355,-0l455.514,-455.514l-224.037,0l-459.832,455.514Z" style="fill:#fff;"/><path d="M1352.357,1131.907l454.094,-454.152l0,222.324l-225.75,232.074l-228.344,-0.245Z" style="fill:#fff;"/></g></svg>